<svg xmlns="http://www.w3.org/2000/svg" width="30" height="20" viewBox="0 0 30 20"><g><g><path fill="#000000" d="M29.25 10.001a.68.68 0 0 1-.2.493.702.702 0 0 1-.493.2h-8.004a9.888 9.888 0 0 1-2.88 6.328c-3.87 3.87-10.172 3.87-14.043-.001-3.87-3.871-3.875-10.17 0-14.043 3.87-3.87 10.168-3.874 14.042 0a9.893 9.893 0 0 1 2.881 6.329h8.004c.38 0 .694.314.694.694zm-12.563 6.042c3.33-3.33 3.322-8.748-.005-12.075-3.326-3.326-8.74-3.33-12.07 0-3.327 3.325-3.33 8.74 0 12.07s8.749 3.33 12.075.005z"/></g></g></svg>